<mxfile host="app.diagrams.net" modified="2020-09-29T14:53:33.756Z" agent="5.0 (X11; Linux x86_64) AppleWebKit/537.36 (KHTML, like Gecko) Chrome/85.0.4183.121 Safari/537.36" etag="c_xCp01kxJHFB1eI7LCo" version="13.7.6" type="github">
  <diagram id="0d7cefc2-ccd6-e077-73ed-a8e48b0cddf6" name="Page-1">
    <mxGraphModel dx="1231" dy="703" grid="1" gridSize="10" guides="1" tooltips="1" connect="1" arrows="1" fold="1" page="1" pageScale="1" pageWidth="1169" pageHeight="827" background="#ffffff" math="0" shadow="0">
      <root>
        <mxCell id="0" />
        <mxCell id="1" parent="0" />
        <mxCell id="2" value="" style="swimlane;shadow=1;strokeColor=#4277BB;fillColor=#ffffff;fontColor=#4277BB;align=right;startSize=0;collapsible=0;strokeWidth=3;" parent="1" vertex="1">
          <mxGeometry x="54" y="80" width="1046" height="640" as="geometry" />
        </mxCell>
        <mxCell id="103" style="edgeStyle=elbowEdgeStyle;rounded=0;elbow=vertical;html=1;labelBackgroundColor=#ffffff;startArrow=classic;startFill=1;startSize=4;endArrow=classic;endFill=1;endSize=4;jettySize=auto;orthogonalLoop=1;strokeColor=#4277BB;strokeWidth=2;fontSize=14;fontColor=#4277BB;entryX=1;entryY=0.5;entryDx=0;entryDy=0;" parent="2" source="76" target="85" edge="1">
          <mxGeometry relative="1" as="geometry" />
        </mxCell>
        <mxCell id="28" value="" style="swimlane;shadow=0;strokeColor=#4277BB;fillColor=#ffffff;fontColor=#4277BB;align=right;startSize=0;collapsible=0;strokeWidth=3;" parent="2" vertex="1">
          <mxGeometry x="68" y="181.84" width="139" height="280" as="geometry" />
        </mxCell>
        <mxCell id="83" value="ME/ERA" style="aspect=fixed;perimeter=ellipsePerimeter;html=1;align=center;shadow=0;dashed=0;image;image=img/lib/ibm/applications/microservice.svg;labelBackgroundColor=#ffffff;strokeColor=#666666;strokeWidth=3;fillColor=#C2952D;gradientColor=none;fontSize=12;fontColor=#4277BB;" parent="28" vertex="1">
          <mxGeometry x="29" y="37.82" width="82" height="60" as="geometry" />
        </mxCell>
        <mxCell id="84" value="ADMIN" style="aspect=fixed;perimeter=ellipsePerimeter;html=1;align=center;shadow=0;dashed=0;image;image=img/lib/ibm/applications/microservice.svg;labelBackgroundColor=#ffffff;strokeColor=#666666;strokeWidth=3;fillColor=#C2952D;gradientColor=none;fontSize=12;fontColor=#4277BB;" parent="28" vertex="1">
          <mxGeometry x="29" y="163.82" width="82" height="60" as="geometry" />
        </mxCell>
        <mxCell id="xZWT98XhmGvTTzjk9EWo-156" style="edgeStyle=orthogonalEdgeStyle;rounded=0;orthogonalLoop=1;jettySize=auto;html=1;exitX=0;exitY=0.5;exitDx=0;exitDy=0;entryX=1;entryY=0.5;entryDx=0;entryDy=0;shadow=1;" edge="1" parent="2" source="77" target="28">
          <mxGeometry relative="1" as="geometry" />
        </mxCell>
        <mxCell id="77" value="" style="swimlane;shadow=0;strokeColor=#4277BB;fillColor=#ffffff;fontColor=#4277BB;align=right;startSize=0;collapsible=0;strokeWidth=3;" parent="2" vertex="1">
          <mxGeometry x="267" y="178.16" width="137" height="280" as="geometry" />
        </mxCell>
        <mxCell id="xZWT98XhmGvTTzjk9EWo-127" style="edgeStyle=orthogonalEdgeStyle;rounded=0;orthogonalLoop=1;jettySize=auto;html=1;" edge="1" parent="77" source="85" target="86">
          <mxGeometry relative="1" as="geometry" />
        </mxCell>
        <mxCell id="85" value="TOOL&#39;S SMART-EC" style="aspect=fixed;perimeter=ellipsePerimeter;html=1;align=center;shadow=0;dashed=0;image;image=img/lib/ibm/infrastructure/infrastructure_services.svg;rounded=1;labelBackgroundColor=#ffffff;strokeColor=#666666;strokeWidth=3;fillColor=#C2952D;gradientColor=none;fontSize=14;fontColor=#4277BB;" parent="77" vertex="1">
          <mxGeometry x="39" y="28" width="60" height="60" as="geometry" />
        </mxCell>
        <mxCell id="86" value="DASHBOARD" style="aspect=fixed;perimeter=ellipsePerimeter;html=1;align=center;shadow=0;dashed=0;image;image=img/lib/ibm/infrastructure/dashboard.svg;rounded=1;labelBackgroundColor=#ffffff;strokeColor=#666666;strokeWidth=3;fillColor=#C2952D;gradientColor=none;fontSize=14;fontColor=#4277BB;" parent="77" vertex="1">
          <mxGeometry x="39" y="181" width="60" height="60" as="geometry" />
        </mxCell>
        <mxCell id="xZWT98XhmGvTTzjk9EWo-154" style="edgeStyle=orthogonalEdgeStyle;rounded=0;orthogonalLoop=1;jettySize=auto;html=1;exitX=0;exitY=0.5;exitDx=0;exitDy=0;shadow=1;" edge="1" parent="2" source="79" target="xZWT98XhmGvTTzjk9EWo-132">
          <mxGeometry relative="1" as="geometry" />
        </mxCell>
        <mxCell id="79" value="" style="swimlane;shadow=0;strokeColor=#4277BB;fillColor=#ffffff;fontColor=#4277BB;align=right;startSize=0;collapsible=0;strokeWidth=3;" parent="2" vertex="1">
          <mxGeometry x="846" y="120" width="160" height="483" as="geometry" />
        </mxCell>
        <mxCell id="xZWT98XhmGvTTzjk9EWo-119" value="SAP" style="aspect=fixed;perimeter=ellipsePerimeter;html=1;align=center;shadow=0;dashed=0;image;image=img/lib/ibm/data/data_services.svg;rounded=1;labelBackgroundColor=#ffffff;strokeColor=#666666;strokeWidth=3;fillColor=#C2952D;gradientColor=none;fontSize=14;fontColor=#4277BB;" vertex="1" parent="79">
          <mxGeometry x="51" y="252.5" width="60" height="60" as="geometry" />
        </mxCell>
        <mxCell id="xZWT98XhmGvTTzjk9EWo-120" value="ENOVIA" style="aspect=fixed;perimeter=ellipsePerimeter;html=1;align=center;shadow=0;dashed=0;image;image=img/lib/ibm/data/data_services.svg;rounded=1;labelBackgroundColor=#ffffff;strokeColor=#666666;strokeWidth=3;fillColor=#C2952D;gradientColor=none;fontSize=14;fontColor=#4277BB;" vertex="1" parent="79">
          <mxGeometry x="51" y="139" width="60" height="60" as="geometry" />
        </mxCell>
        <mxCell id="xZWT98XhmGvTTzjk9EWo-121" value="PCMS" style="aspect=fixed;perimeter=ellipsePerimeter;html=1;align=center;shadow=0;dashed=0;image;image=img/lib/ibm/data/data_services.svg;rounded=1;labelBackgroundColor=#ffffff;strokeColor=#666666;strokeWidth=3;fillColor=#C2952D;gradientColor=none;fontSize=14;fontColor=#4277BB;" vertex="1" parent="79">
          <mxGeometry x="51" y="11" width="60" height="60" as="geometry" />
        </mxCell>
        <mxCell id="xZWT98XhmGvTTzjk9EWo-124" value="ODSDB" style="aspect=fixed;perimeter=ellipsePerimeter;html=1;align=center;shadow=0;dashed=0;image;image=img/lib/ibm/data/data_services.svg;rounded=1;labelBackgroundColor=#ffffff;strokeColor=#666666;strokeWidth=3;fillColor=#C2952D;gradientColor=none;fontSize=14;fontColor=#4277BB;" vertex="1" parent="79">
          <mxGeometry x="51" y="379" width="60" height="60" as="geometry" />
        </mxCell>
        <mxCell id="xZWT98XhmGvTTzjk9EWo-129" style="edgeStyle=orthogonalEdgeStyle;rounded=0;orthogonalLoop=1;jettySize=auto;html=1;exitX=0.5;exitY=1;exitDx=0;exitDy=0;" edge="1" parent="2" source="77" target="77">
          <mxGeometry relative="1" as="geometry" />
        </mxCell>
        <mxCell id="xZWT98XhmGvTTzjk9EWo-148" style="edgeStyle=orthogonalEdgeStyle;rounded=0;orthogonalLoop=1;jettySize=auto;html=1;exitX=0;exitY=0.5;exitDx=0;exitDy=0;entryX=1;entryY=0.5;entryDx=0;entryDy=0;shadow=1;" edge="1" parent="2" source="xZWT98XhmGvTTzjk9EWo-132" target="xZWT98XhmGvTTzjk9EWo-136">
          <mxGeometry relative="1" as="geometry">
            <Array as="points">
              <mxPoint x="635" y="319.34" />
            </Array>
          </mxGeometry>
        </mxCell>
        <mxCell id="xZWT98XhmGvTTzjk9EWo-132" value="" style="swimlane;shadow=0;strokeColor=#4277BB;fillColor=#ffffff;fontColor=#4277BB;align=right;startSize=0;collapsible=0;strokeWidth=3;" vertex="1" parent="2">
          <mxGeometry x="647" y="179.34" width="120" height="280" as="geometry" />
        </mxCell>
        <mxCell id="xZWT98XhmGvTTzjk9EWo-135" value="CRAWLER" style="aspect=fixed;perimeter=ellipsePerimeter;html=1;align=center;shadow=0;dashed=0;image;image=img/lib/ibm/management/api_management.svg;rounded=1;labelBackgroundColor=#ffffff;strokeColor=#666666;strokeWidth=3;fillColor=#C2952D;gradientColor=none;fontSize=14;fontColor=#4277BB;spacingTop=3;" vertex="1" parent="xZWT98XhmGvTTzjk9EWo-132">
          <mxGeometry x="30" y="106" width="60" height="60" as="geometry" />
        </mxCell>
        <mxCell id="xZWT98XhmGvTTzjk9EWo-155" style="edgeStyle=orthogonalEdgeStyle;rounded=0;orthogonalLoop=1;jettySize=auto;html=1;exitX=0;exitY=0.5;exitDx=0;exitDy=0;entryX=1;entryY=0.5;entryDx=0;entryDy=0;shadow=1;" edge="1" parent="2" source="xZWT98XhmGvTTzjk9EWo-136" target="77">
          <mxGeometry relative="1" as="geometry" />
        </mxCell>
        <mxCell id="xZWT98XhmGvTTzjk9EWo-136" value="" style="swimlane;shadow=0;strokeColor=#4277BB;fillColor=#ffffff;fontColor=#4277BB;align=right;startSize=0;collapsible=0;strokeWidth=3;" vertex="1" parent="2">
          <mxGeometry x="464" y="178.66" width="124" height="280" as="geometry" />
        </mxCell>
        <mxCell id="xZWT98XhmGvTTzjk9EWo-149" style="edgeStyle=orthogonalEdgeStyle;rounded=0;orthogonalLoop=1;jettySize=auto;html=1;exitX=0.5;exitY=0;exitDx=0;exitDy=0;shadow=1;" edge="1" parent="xZWT98XhmGvTTzjk9EWo-136" source="87" target="76">
          <mxGeometry relative="1" as="geometry" />
        </mxCell>
        <mxCell id="87" value="SMART EC" style="aspect=fixed;perimeter=ellipsePerimeter;html=1;align=center;shadow=1;dashed=0;image;image=img/lib/ibm/data/data_services.svg;rounded=1;labelBackgroundColor=#ffffff;strokeColor=#666666;strokeWidth=3;fillColor=#C2952D;gradientColor=none;fontSize=14;fontColor=#4277BB;" parent="xZWT98XhmGvTTzjk9EWo-136" vertex="1">
          <mxGeometry x="32" y="174.68" width="60" height="60" as="geometry" />
        </mxCell>
        <mxCell id="76" value="BACK END" style="aspect=fixed;perimeter=ellipsePerimeter;html=1;align=center;shadow=1;dashed=0;image;image=img/lib/ibm/management/api_management.svg;rounded=1;labelBackgroundColor=#ffffff;strokeColor=#666666;strokeWidth=3;fillColor=#C2952D;gradientColor=none;fontSize=14;fontColor=#4277BB;spacingTop=3;" parent="xZWT98XhmGvTTzjk9EWo-136" vertex="1">
          <mxGeometry x="32" y="27.5" width="60" height="60" as="geometry" />
        </mxCell>
        <mxCell id="13" value="LEGEND" style="text;html=1;align=left;verticalAlign=middle;fontColor=#4277BB;shadow=0;dashed=0;strokeColor=none;fillColor=none;labelBackgroundColor=none;fontStyle=1;fontSize=14;spacingLeft=0;" parent="2" vertex="1">
          <mxGeometry x="26" y="480" width="150" height="20" as="geometry" />
        </mxCell>
        <mxCell id="xZWT98XhmGvTTzjk9EWo-144" value="" style="group" vertex="1" connectable="0" parent="2">
          <mxGeometry x="26" y="500" width="20" height="93" as="geometry" />
        </mxCell>
        <mxCell id="xZWT98XhmGvTTzjk9EWo-139" value="Application component" style="rounded=0;html=1;shadow=0;labelBackgroundColor=none;strokeColor=none;strokeWidth=2;fillColor=#EBC01A;gradientColor=none;fontSize=12;fontColor=#4277BB;align=left;labelPosition=right;verticalLabelPosition=middle;verticalAlign=middle;spacingLeft=5;" vertex="1" parent="xZWT98XhmGvTTzjk9EWo-144">
          <mxGeometry width="20" height="10" as="geometry" />
        </mxCell>
        <mxCell id="xZWT98XhmGvTTzjk9EWo-140" value="Infrastructure services" style="rounded=0;html=1;shadow=0;labelBackgroundColor=none;strokeColor=none;strokeWidth=2;fillColor=#8DC642;gradientColor=none;fontSize=12;fontColor=#4277BB;align=left;labelPosition=right;verticalLabelPosition=middle;verticalAlign=middle;spacingLeft=5;" vertex="1" parent="xZWT98XhmGvTTzjk9EWo-144">
          <mxGeometry y="20" width="20" height="10" as="geometry" />
        </mxCell>
        <mxCell id="xZWT98XhmGvTTzjk9EWo-141" value="Management" style="rounded=0;html=1;shadow=0;labelBackgroundColor=none;strokeColor=none;strokeWidth=2;fillColor=#0DB39D;gradientColor=none;fontSize=12;fontColor=#4277BB;align=left;labelPosition=right;verticalLabelPosition=middle;verticalAlign=middle;spacingLeft=5;" vertex="1" parent="xZWT98XhmGvTTzjk9EWo-144">
          <mxGeometry y="40" width="20" height="10" as="geometry" />
        </mxCell>
        <mxCell id="xZWT98XhmGvTTzjk9EWo-142" value="Data store" style="rounded=0;html=1;shadow=0;labelBackgroundColor=none;strokeColor=none;strokeWidth=2;fillColor=#335D81;gradientColor=none;fontSize=12;fontColor=#4277BB;align=left;labelPosition=right;verticalLabelPosition=middle;verticalAlign=middle;spacingLeft=5;" vertex="1" parent="xZWT98XhmGvTTzjk9EWo-144">
          <mxGeometry y="60" width="20" height="10" as="geometry" />
        </mxCell>
        <mxCell id="xZWT98XhmGvTTzjk9EWo-143" value="Scalable" style="aspect=fixed;perimeter=ellipsePerimeter;html=1;align=left;shadow=0;image;image=img/lib/ibm/miscellaneous/scalable.svg;rounded=0;labelBackgroundColor=none;strokeColor=none;strokeWidth=2;fillColor=#335D81;gradientColor=none;fontSize=12;fontColor=#4277BB;verticalAlign=middle;spacingLeft=7;labelPosition=right;verticalLabelPosition=middle;" vertex="1" parent="xZWT98XhmGvTTzjk9EWo-144">
          <mxGeometry x="3" y="78" width="15" height="15" as="geometry" />
        </mxCell>
      </root>
    </mxGraphModel>
  </diagram>
</mxfile>
